#!OML:ASF X:\für Bonn\!DataBase\2005_08_12_Daniel\c3d\Daniel.ASF
:FULLY-SPECIFIED
:DEGREES
400
root 21.6819 1.31863 0.0806283 -1281.9 261.189 98.5157
lowerback 16.9085 -2.73653 -4.64539
upperback 3.32302 -4.76915 -1.77746
thorax -5.67443 -2.37338 1.75642
lowerneck -13.2225 1.32687 -6.68029
upperneck 4.14759 2.69425 1.63455
head 3.6285 1.25569 1.94665
rclavicle -7.43455e-014 9.74946e-014
rhumerus -409.967 -21.4521 295.208
rradius 11.5502
rwrist 74.0365
rhand -9.50132 732.852
rfingers 7.12502
rthumb 16.4638 703.531
lclavicle -7.43455e-014 9.74946e-014
lhumerus -411.15 23.6881 -296.736
lradius 17.3354
lwrist -66.7502
lhand -9.42944 -725.809
lfingers 7.12502
lthumb 16.533 23.507
rfemur 10.2852 17.4284 18.5661
rtibia 24.1805
rfoot 350.798 -30.7611
rtoes 27.092
lfemur 2.60672 -25.1969 -28.3056
ltibia 29.1865
lfoot 18.0953 11.5786
ltoes -1.59517
401
root 21.687 1.31758 0.0800771 -1281.89 261.206 98.5677
lowerback 16.8425 -2.72918 -4.6531
upperback 3.30787 -4.75531 -1.76984
thorax -5.65441 -2.36612 1.76225
lowerneck -13.0714 1.30741 -6.71801
upperneck 3.97964 2.65969 1.65031
head 3.54073 1.24205 1.9498
rclavicle -2.66371e-014 4.07291e-014
rhumerus -409.849 -21.1315 294.859
rradius 11.5689
rwrist 73.4966
rhand -9.60301 732.866
rfingers 7.12502
rthumb 16.3659 703.536
lclavicle -2.66371e-014 4.07291e-014
lhumerus -410.993 23.2713 -296.299
lradius 17.555
lwrist -65.8304
lhand -9.5369 -725.812
lfingers 7.12502
lthumb 16.4296 23.5125
rfemur 10.2375 17.9742 18.8043
rtibia 24.2672
rfoot 350.362 -30.86
rtoes 27.0545
lfemur 2.53317 -25.1232 -28.2765
ltibia 29.1384
lfoot 18.2145 11.312
ltoes -1.63887
402
root 21.6898 1.31651 0.0805199 -1281.88 261.213 98.6145
lowerback 16.7872 -2.73038 -4.65112
upperback 3.29439 -4.75247 -1.77032
thorax -5.6393 -2.36447 1.75699
lowerneck -12.9303 1.29647 -6.73086
upperneck 3.83476 2.63427 1.65645
head 3.46314 1.23247 1.94648
rclavicle -9.18385e-014 3.8499e-014
rhumerus -409.76 -20.8844 294.588
rradius 11.5831
rwrist 72.9708
rhand -9.71459 732.93
rfingers 7.12502
rthumb 16.2585 703.592
lclavicle -9.18385e-014 3.8499e-014
lhumerus -410.875 22.8766 -295.898
lradius 17.806
lwrist -64.9211
lhand -9.8216 -725.936
lfingers 7.12502
lthumb 16.1554 23.4111
rfemur 10.206 18.5107 19.0279
rtibia 24.3585
rfoot 349.786 -30.9033
rtoes 27.0947
lfemur 2.48167 -25.0728 -28.2695
ltibia 29.0925
lfoot 18.3294 11.0511
ltoes -1.75204
403
root 21.6935 1.3153 0.0797892 -1281.96 261.224 98.7669
lowerback 16.7098 -2.72078 -4.66661
upperback 3.27679 -4.73678 -1.77337
thorax -5.6161 -2.35616 1.75488
lowerneck -12.7804 1.27589 -6.74997
upperneck 3.66109 2.59633 1.65409
head 3.37461 1.21666 1.93991
rclavicle -1.19271e-014 5.05534e-014
rhumerus -409.718 -20.765 294.433
rradius 11.58
rwrist 72.5949
rhand -9.84673 732.931
rfingers 7.12502
rthumb 16.1312 703.582
lclavicle -1.19271e-014 5.05534e-014
lhumerus -410.747 22.5498 -295.591
lradius 17.9913
lwrist -64.1789
lhand -10.2212 -726.151
lfingers 7.12502
lthumb 15.7707 23.2263
rfemur 10.1212 18.9472 19.1876
rtibia 24.4604
rfoot 349.479 -30.9706
rtoes 27.009
lfemur 2.39871 -24.9993 -28.2521
ltibia 29.0354
lfoot 18.4614 10.8165
ltoes -1.90324
404
root 21.6976 1.31428 0.0798096 -1281.93 261.233 98.807
lowerback 16.6505 -2.72768 -4.67658
upperback 3.24756 -4.74253 -1.7603
thorax -5.61292 -2.35754 1.77265
lowerneck -12.6473 1.26589 -6.79781
upperneck 3.52594 2.57785 1.66364
head 3.30193 1.20971 1.94509
rclavicle -4.01545e-014 -1.8341e-014
rhumerus -409.714 -20.7455 294.457
rradius 11.5575
rwrist 72.4026
rhand -9.93078 732.972
rfingers 7.12502
rthumb 16.0503 703.617
lclavicle -4.01545e-014 -1.8341e-014
lhumerus -410.663 22.2506 -295.285
lradius 18.1789
lwrist -63.3756
lhand -10.6592 -726.284
lfingers 7.12502
lthumb 15.3488 23.1268
rfemur 10.007 19.2138 19.2802
rtibia 24.5615
rfoot 349.415 -30.9791
rtoes 26.7965
lfemur 2.32363 -24.972 -28.2301
ltibia 28.9781
lfoot 18.5781 10.6564
ltoes -1.82508
